<?xml version="1.0" encoding="utf-8"?>
<!-- Generator: Adobe Illustrator 24.2.3, SVG Export Plug-In . SVG Version: 6.00 Build 0)  -->
<svg version="1.1" id="Layer_1" xmlns="http://www.w3.org/2000/svg" xmlns:xlink="http://www.w3.org/1999/xlink" x="0px" y="0px"
	 viewBox="0 0 713.89 387.79" style="enable-background:new 0 0 713.89 387.79;" xml:space="preserve">
<style type="text/css">
	.st0{fill:#040404;}
	.st1{fill:none;}
	.st2{fill:#C30000;}
	.st3{fill:#FECFCF;}
	.st4{fill:#E80000;}
	.st5{fill:#FE5050;}
	.st6{fill:#FE0000;}
	.st7{fill:#F4F3F3;}
	.st8{fill:#BDBDBD;}
	.st9{fill:#C1C1C1;}
</style>
<g>
	<g>
		<path class="st0" d="M642.02,30.7c-10.97-2.06-22.01-4.12-33.11-5.09c-5.28-0.46-10.57-0.79-15.86-1.06l-0.15-0.18h-7.87
			c-15.63,0-31.01,0-46.73,0l-0.32,0.06h-15.45v15.58h-15.38h-1.33h-13.89V24.44h-15.63c-0.11,0-0.21,0-0.32,0
			c-15.54,0-30.85,0-46.35,0v-0.06h-15.6l0.16,15.39l-0.12,0.09c0,0.05,0,0.1,0,0.16h-15.43l0.16,15.37c-0.1,0-0.19,0-0.29,0
			c0,0.02,0,0.05,0,0.07h-15.14l0.05,4.28l-21.89-1.86l-6.82,3.32c-5.93-6.08-22.94-3.8-24.99-3.5v-2.03h-15.46l-0.14-0.25l-0.1,0
			c0,0,0,0,0,0h0.1V40.01h-15.49c0-0.08,0-0.16,0-0.25h0.02V24.37c0,0-62.34,0.04-62.34,0.06h-15.68v15.58h-15.38h-0.1h-15.12V24.44
			h-54.5l-11.13-0.06c-6.49,0.3-12.97,0.67-19.43,1.23c-11.1,0.98-22.14,3.03-33.11,5.09c-7.61,1.43-10.87,5.81-8.04,13.9
			c1.38,3.95,1.61,8.32,2.26,12.51c0.82,5.39,2.84,9.36,7.98,12.61c3.02,1.91,5.49,5.52,7.12,9.17c0,18.18,0,36.19,0,54.35
			c0,0,0,0,0,0l0.16,30.95h15.27c0,0.01,0,0.01,0,0.02c0.02,0,0.04,0,0.06,0l0.16,15.61h15.44v0c0.1,0,0.21,0,0.31,0v0h-0.31
			l0.16,15.5h15.19l0.16,15.35h15.24l0.17,15.83h15.35l0.16,15.27h15.22l0.16,15.39h15.44c0,0,0,0.01,0,0.01
			c10.63,0,20.84,0,31.21,0c0.08,0,0.16,0,0.25,0h15.62v-15.32h15.5v-15.5h-0.05c0-0.11,0-0.21,0-0.31h15.38v-15.37
			c0,0,0.01,0,0.01,0c0,0,0-0.01,0-0.01h15.8v-15.41h15.45v-15.48c0.01,0,0.03,0,0.04,0c0-0.06,0-0.12,0-0.18h15.24v-14.15
			c0-5.38,0.01-11.07,0.02-16.72h15.59v-10.2l33.81-6.49l19.64,6.44v10.25h15.55c0,5.15,0,10.3,0,15.48c0.02,0,0.04,0,0.06,0v15.61
			h15.23v15.5h15.03h0.58v15.35H445v15.83h15.52v15.27h15.38v15.4h15.6c0,0,0,0,0,0c10.68,0,20.93,0,31.36,0c0.03,0,0.07,0,0.1,0
			h15.51v-15.38c0,0,0.01,0,0.01,0v0.1h15.6v-15.5h-0.05c0-0.14,0-0.28,0-0.42h15.4v-15.2h15.8v-15.5h15.57v-15.69H616v-15.5
			l-0.01-0.03c0-5.16,0-10.27,0-15.35h15.51v-15.49c0,0,0-0.01,0-0.01c0-17.29,0-34.29,0-51.35c0.01,0.01,0.03,0.02,0.04,0.03
			c0.04-0.12,0.07-0.23,0.11-0.35c1.5-4.45,4.4-9.48,8.17-11.86c5.14-3.25,7.16-7.22,7.98-12.61c0.64-4.2,0.87-8.56,2.26-12.51
			C652.9,36.51,649.63,32.13,642.02,30.7z M127.35,179.84L127.35,179.84c0.05,0,0.11,0,0.16,0l0,0H127.35z M298.75,164.11
			c0-0.01,0-0.02,0-0.03c0.29,0,0.57,0.02,0.86,0.03H298.75z M314.01,133.24c-5.13,0-10.25-0.01-15.38-0.01l-0.01,0.02
			c0.01,10.25,0.02,20.51,0.03,30.76c-5.09,0.04-10.17,0.07-15.26,0.11c-0.05,5.25-0.1,10.49-0.15,15.74
			c-5.25,0.04-10.51,0.08-15.76,0.12c-0.03,5.07-0.06,10.14-0.09,15.21h-0.93l0,0.08c-4.8,0.01-9.6,0.03-14.4,0.04
			c-0.02,5.09-0.03,10.17-0.05,15.26h-0.17l0,0.07c-5.05,0.02-10.1,0.04-15.14,0.06c-0.03,5.23-0.06,10.45-0.09,15.68h-0.94l0,0.13
			c-4.93,0.05-9.85,0.1-14.78,0.15c0,4.91,0,9.82,0,15.1h-0.32l0,0.05c-5.14,0-10.18,0-15.21,0c-5.28,0.03-10.56,0.05-15.83,0.08
			c0.05-5.13,0.1-10.27,0.14-15.4c-5.17,0.01-10.35,0.02-15.52,0.03c0,0,0,0,0,0v0l0,0c0-5.16,0-10.32,0-15.85
			c-5.27,0-10.34,0-15.41,0c0-5.02,0-10.04,0-15.36c-5.22,0-10.29,0-15.62,0c0-5.29,0-10.29,0-15.42c-5.25,0-10.25,0-15.23,0v-0.02
			h-0.37c0-5.11,0-10.21,0-15.6c-5.09,0-10.07,0-15.24,0v-0.59h-0.08c0-10.2,0-20.14,0-30.4c-5.22,0-10.25,0-15.41,0v-0.04h-0.12
			c0-20.51,0-40.7,0-61.2l0.39-1.25c4.28,0,8.47,0,12.64,0l2.51,0.09l-0.08-15.46l15.47,0.09l-0.09-15.52c15.72,0,31.12,0,47.08,0
			c0,5.16,0,10.31,0,15.46c5.13-0.01,10.27-0.02,15.4-0.03c0,5.01,0,10.02,0,15.23c10.22,0,20.37,0,30.8,0c0-5.09,0-10.16,0-15.23
			c5.11,0,10.21,0,15.58,0c0-5.14,0-10.14,0-15.45c10.52,0,20.78,0,31.05,0c5.1,0,10.2,0,15.81,0c0,5.18,0,10.32,0,15.46l0.04,0.02
			c5.13-0.01,10.25-0.02,15.38-0.04c0.01,5.12,0.01,10.23,0.02,15.35c5,0.01,10.01,0.02,15.01,0.02l0.35,0.07
			C314.02,91.64,314.02,112.44,314.01,133.24z M522.75,53.52c0,0.62,0,1.25,0,1.87c-0.7,0-1.4,0-2.11,0L522.75,53.52z
			 M585.23,179.81l-0.02,0c0-0.01,0-0.02,0-0.02L585.23,179.81L585.23,179.81z M615.98,133.24c-5.13,0-10.25-0.01-15.38-0.01
			l-0.01,0.02c0.01,10.25,0.02,20.51,0.03,30.76c-5.09,0.04-10.17,0.07-15.26,0.11c-0.05,5.23-0.1,10.47-0.15,15.7l-1.01,0.05
			c-4.92,0.04-9.84,0.07-14.75,0.11c-0.03,5.1-0.06,10.19-0.09,15.29c-5.11,0.01-10.22,0.03-15.33,0.04
			c-0.02,5.07-0.03,10.13-0.05,15.2h-0.15v0.13c-5.05,0.02-10.11,0.04-15.16,0.06c-0.03,5.24-0.06,10.48-0.09,15.73h-0.1v0.07
			c-5.2,0.05-10.41,0.1-15.61,0.15c0,4.9,0,9.8,0,15.05h0v0.1c-5.25,0-10.39,0-15.52,0c-5.28,0.03-10.56,0.05-15.83,0.08
			c0.05-5.13,0.1-10.27,0.14-15.4c-5.17,0.01-10.35,0.02-15.52,0.03c0,0,0,0,0,0v0l0,0c0-5.16,0-10.32,0-15.85
			c-5.27,0-10.34,0-15.41,0c0-5.02,0-10.04,0-15.36c-5.22,0-10.29,0-15.62,0c0-5.29,0-10.29,0-15.42c-5.38,0-10.49,0-15.6,0
			c0,0-0.01-0.02-0.01-0.02v0v0l0.01,0.02c0-5.11,0-10.23,0-15.62c-4.23,0-8.39,0-12.63,0l-2.68-0.03c0-10.4,0-20.51,0-30.96
			c-5.26,0-10.32,0-15.53,0c0-20.91,0-41.5,0-62.41h0.34v-0.08c5.12,0,10.11,0,15.1,0c0-5.12,0-10.24,0-15.36h0.16v-0.01
			c5.07,0,10.15,0,15.22,0c0-5.1,0-10.19,0-15.43c15.72,0,31.12,0,47.08,0c0,5.16,0,10.31,0,15.46c5.03-0.01,10.06-0.02,15.09-0.03
			l0.32,0.12c0,4.97,0,9.94,0,15.11c10.22,0,20.37,0,30.8,0c0-5.09,0-10.16,0-15.23c5.11,0,10.21,0,15.58,0c0-5.14,0-10.14,0-15.45
			c10.52,0,20.78,0,31.05,0c5.1,0,10.2,0,15.81,0c0,5.18,0,10.32,0,15.46l0.04,0.02c5.13-0.01,10.25-0.02,15.38-0.04
			c0.01,5.12,0.01,10.23,0.02,15.35c5.12,0.01,10.24,0.02,15.35,0.02C615.99,91.59,615.99,112.42,615.98,133.24z M616,70.76
			c0-0.35,0-0.7,0-1.05c0.23,0.2,0.46,0.41,0.7,0.61c0.18,0.15,0.37,0.29,0.56,0.44C616.83,70.76,616.41,70.76,616,70.76z"/>
		<g>
			<g>
				<path class="st1" d="M236.59,210.58l0.11,0.11C236.7,210.69,236.63,210.62,236.59,210.58z"/>
				<path class="st2" d="M298.66,70.75c-0.01,20.83-0.01,41.65-0.02,62.48c5.13,0,10.25,0.01,15.38,0.01c0-20.82,0-41.65,0-62.47
					C308.9,70.76,303.78,70.75,298.66,70.75z"/>
				<path class="st2" d="M236.7,210.69l-0.11-0.11c-0.01-0.01-0.01-0.01-0.02-0.02l-0.02-0.02c-5.26,0.04-10.52,0.07-15.77,0.11
					c0,0,0,0,0,0c-0.03,5.26-0.06,10.53-0.09,15.79c0.07,0.07,0.14,0.13,0.21,0.19c5.24-0.05,10.48-0.1,15.72-0.15
					C236.64,221.22,236.67,215.96,236.7,210.69L236.7,210.69L236.7,210.69C236.7,210.69,236.7,210.69,236.7,210.69z"/>
				<path class="st2" d="M205.38,226.52C205.38,226.52,205.38,226.52,205.38,226.52c-0.01,5.09-0.01,10.18-0.02,15.28
					c5.14,0,10.28,0,15.53,0c0-5.3,0-10.22,0-15.15c-0.07-0.06-0.14-0.13-0.21-0.19C215.58,226.47,210.48,226.49,205.38,226.52z"/>
				<path class="st2" d="M283.26,133.22l-0.02,0.02c-0.01,10.23-0.03,20.45-0.04,30.68c0.06,0.06,0.13,0.13,0.2,0.19
					c5.09-0.04,10.17-0.07,15.26-0.11c-0.01-10.25-0.02-20.51-0.03-30.76C293.51,133.24,288.38,133.23,283.26,133.22z"/>
				<path class="st2" d="M267.41,164.02C267.41,164.02,267.41,164.02,267.41,164.02c-0.03,5.26-0.07,10.52-0.1,15.79
					c0,0,0.17,0.16,0.17,0.16c5.25-0.04,10.51-0.08,15.76-0.12c0.05-5.25,0.1-10.49,0.15-15.74c-0.07-0.06-0.13-0.13-0.2-0.19
					C277.94,163.96,272.67,163.99,267.41,164.02z"/>
				<path class="st2" d="M252.02,179.89C252.02,179.89,252.02,179.89,252.02,179.89c-0.03,5.1-0.06,10.19-0.09,15.29l0.13,0.13
					c5.11-0.01,10.22-0.03,15.33-0.04c0.03-5.1,0.06-10.19,0.09-15.29c0,0-0.17-0.16-0.17-0.16
					C262.21,179.83,257.11,179.86,252.02,179.89z"/>
				<path class="st2" d="M236.64,195.26C236.64,195.26,236.64,195.26,236.64,195.26c-0.03,5.1-0.06,10.19-0.09,15.29
					c0,0,0.01,0.01,0.02,0.02l0.02,0.02c0.04,0.04,0.11,0.11,0.11,0.11l0,0c5.1-0.02,10.21-0.04,15.31-0.06
					c0.02-5.11,0.03-10.22,0.05-15.33l-0.13-0.13C246.83,195.2,241.74,195.23,236.64,195.26z"/>
				<path class="st2" d="M236.57,210.56c0.01,0.01,0.01,0.01,0.02,0.02L236.57,210.56z"/>
				<polygon class="st2" points="236.7,210.69 236.7,210.69 236.7,210.69 				"/>
			</g>
			<path class="st3" d="M143.44,55.43c0,5,0,10,0,15.43c-5.53,0-10.67,0-15.81,0c0,0-0.02,0.02-0.02,0.02c0,5.1,0,10.19,0,15.78
				c-5.31,0-10.39,0-15.47,0c0.01,5.09,0.02,10.19,0.02,15.28c5.2-0.05,10.4-0.1,15.6-0.15c0-5,0-10,0-15.33c5.37,0,10.42,0,15.63,0
				c0-5.26,0-10.18,0-15.39c5.18,0,10.18,0,15.18,0c0.03-5.2,0.05-10.4,0.08-15.61C153.58,55.46,148.51,55.44,143.44,55.43z"/>
			<g>
				<path class="st4" d="M298.64,55.4c-5.13,0.01-10.25,0.02-15.38,0.04c0,25.93,0,51.86,0.01,77.79
					c5.12,0.01,10.24,0.02,15.36,0.03c0,0,0.01-0.02,0.01-0.02c0.01-20.83,0.01-41.65,0.02-62.48
					C298.65,65.63,298.65,60.51,298.64,55.4z"/>
				<path class="st4" d="M270.51,55.44c4.22-0.25,8.47-0.05,12.7-0.04c0-5.14,0-10.28,0-15.46c-5.62,0-10.71,0-15.81,0
					c0,4.07,0.14,8.14-0.06,12.2C267.23,54.62,267.8,55.6,270.51,55.44z"/>
				<path class="st4" d="M189.53,241.87c5.28-0.03,10.56-0.05,15.83-0.08c0-5.09,0.01-10.18,0.01-15.27
					c-5.23-0.02-10.47-0.03-15.7-0.05C189.63,231.6,189.58,236.74,189.53,241.87z"/>
				<path class="st4" d="M269.92,133.22c-2.09-0.07-2.58,0.66-2.56,2.63c0.09,9.39,0.05,18.78,0.05,28.17
					c5.26-0.03,10.53-0.06,15.79-0.1c0.01-10.23,0.03-20.45,0.04-30.68C278.8,133.25,274.36,133.36,269.92,133.22z"/>
				<path class="st4" d="M254.19,163.98c-1.65-0.03-2.23,0.5-2.19,2.18c0.09,4.57,0.03,9.15,0.03,13.73
					c5.1-0.03,10.2-0.05,15.29-0.08c0.03-5.26,0.07-10.52,0.1-15.79C263,164.02,258.59,164.07,254.19,163.98z"/>
				<path class="st4" d="M222.91,195.24c-1.68-0.03-2.21,0.55-2.17,2.2c0.09,4.41,0.04,8.81,0.04,13.22
					c5.26-0.04,10.52-0.08,15.77-0.11c0.03-5.09,0.06-10.19,0.09-15.28C232.06,195.26,227.48,195.32,222.91,195.24z"/>
				<path class="st4" d="M207.55,210.61c-1.65-0.03-2.23,0.5-2.2,2.18c0.09,4.58,0.03,9.15,0.02,13.73c5.1-0.02,10.2-0.05,15.3-0.07
					c0.03-5.26,0.06-10.53,0.09-15.79C216.37,210.65,211.96,210.7,207.55,210.61z"/>
				<path class="st4" d="M238.8,179.86c-1.66-0.03-2.22,0.52-2.19,2.18c0.09,4.4,0.03,8.81,0.02,13.21
					c5.1-0.03,10.19-0.06,15.29-0.08c0.03-5.09,0.06-10.19,0.09-15.28C247.61,179.89,243.21,179.95,238.8,179.86z"/>
			</g>
			<g>
				<path class="st5" d="M174.48,55.52c-5.28-0.02-10.55-0.04-15.83-0.06c-0.03,5.2-0.05,10.4-0.08,15.61
					c4.67,0.04,9.33,0.05,14,0.14c1.62,0.03,2.03-0.77,2.01-2.2C174.51,64.52,174.51,60.02,174.48,55.52z"/>
				<path class="st5" d="M112.16,101.95c0,5.22,0,10.45,0,15.87c4.96,0,9.54,0.06,14.11-0.08c0.57-0.02,1.57-1.09,1.57-1.68
					c0.08-4.75-0.03-9.51-0.09-14.26C122.56,101.85,117.36,101.9,112.16,101.95z"/>
				<path class="st5" d="M127.6,70.89c-5.13-0.01-10.26-0.03-15.39-0.04c-0.02,5.27-0.05,10.54-0.07,15.82c5.08,0,10.16,0,15.47,0
					C127.6,81.08,127.6,75.99,127.6,70.89z"/>
				<path class="st5" d="M127.63,70.87c5.14,0,10.28,0,15.81,0c0-5.44,0-10.44,0-15.43c-5.28,0.02-10.56,0.03-15.84,0.05
					C127.6,60.61,127.61,65.74,127.63,70.87z"/>
			</g>
		</g>
		<g>
			<g>
				<path class="st6" d="M283.22,55.41c-4.24-0.01-8.48-0.21-12.7,0.04c-2.72,0.16-3.29-0.82-3.17-3.3c0.2-4.06,0.06-8.13,0.06-12.2
					c-10.26,0-20.53,0-31.05,0c0,5.31,0,10.31,0,15.45c-5.36,0-10.47,0-15.58,0c0,5.07,0,10.15,0,15.23c-10.43,0-20.58,0-30.8,0
					c0-5.21,0-10.22,0-15.23c-5.13,0.01-10.27,0.02-15.4,0.03c0-5.15,0-10.3,0-15.46c-15.95,0-31.35,0-47.08,0
					c0,5.24,0,10.33,0,15.43c-5.13,0-10.25,0-15.38,0c0,5.12,0,10.25,0,15.37c-5.1,0-10.21,0-15.45,0c0,20.94,0,41.55,0,62.49
					c5.2,0,10.27,0,15.53,0c0,10.46,0,20.58,0,30.99c5.2,0,10.2,0,15.31,0c0,5.4,0,10.51,0,15.62c5.11,0,10.22,0,15.6,0
					c0,5.13,0,10.13,0,15.42c5.34,0,10.41,0,15.62,0c0,5.32,0,10.34,0,15.36c5.07,0,10.14,0,15.41,0c0,5.53,0,10.69,0,15.85
					c5.17-0.01,10.35-0.02,15.52-0.03c5.23,0.02,10.47,0.03,15.7,0.05l0,0c0-4.58,0.06-9.15-0.02-13.73
					c-0.03-1.67,0.54-2.21,2.2-2.18c4.41,0.09,8.82,0.04,13.22,0.04c0,0,0,0,0,0c0-4.41,0.05-8.82-0.04-13.22
					c-0.03-1.65,0.5-2.23,2.17-2.2c4.58,0.09,9.15,0.03,13.73,0.02l0,0c0-4.4,0.06-8.81-0.02-13.21c-0.03-1.67,0.53-2.22,2.19-2.18
					c4.4,0.09,8.81,0.03,13.21,0.03c0,0,0,0,0,0c0-4.58,0.06-9.15-0.03-13.73c-0.03-1.67,0.54-2.21,2.19-2.18
					c4.41,0.09,8.82,0.04,13.22,0.04c0,0,0,0,0,0c0-9.39,0.04-18.78-0.05-28.17c-0.02-1.97,0.48-2.7,2.56-2.63
					c4.44,0.15,8.88,0.03,13.32,0.03c0,0,0.02-0.02,0.02-0.02c0-25.93,0-51.86-0.01-77.79L283.22,55.41z M172.57,71.22
					c-4.66-0.09-9.33-0.1-14-0.14c-5,0-10.01,0-15.18,0c0,5.21,0,10.13,0,15.39c-5.21,0-10.26,0-15.63,0c0,5.34,0,10.33,0,15.33
					c0.05,4.75,0.17,9.51,0.09,14.26c-0.01,0.59-1.01,1.66-1.57,1.68c-4.57,0.14-9.15,0.08-14.11,0.08c0-5.42,0-10.65,0-15.87
					c-0.01-5.09-0.02-10.19-0.02-15.28c0.02-5.27,0.05-10.54,0.07-15.82l0,0c5.13,0.01,10.26,0.03,15.39,0.04l0.02-0.02
					c-0.01-5.13-0.02-10.26-0.03-15.39c0,0-0.01-0.01-0.01-0.01l0.01,0.01c5.28-0.02,10.56-0.03,15.84-0.05
					c5.07,0.01,10.14,0.02,15.21,0.03c5.28,0.02,10.56,0.04,15.83,0.06l0,0c0.03,4.5,0.03,8.99,0.09,13.49
					C174.6,70.45,174.19,71.25,172.57,71.22z"/>
				<path class="st6" d="M585.23,55.43l-0.04-0.02c-4.24-0.01-8.48-0.21-12.7,0.04c-2.72,0.16-3.29-0.82-3.17-3.3
					c0.2-4.06,0.06-8.13,0.06-12.2c-10.26,0-20.53,0-31.05,0c0,5.31,0,10.31,0,15.45c-5.36,0-10.47,0-15.58,0
					c0,5.07,0,10.15,0,15.23c-10.43,0-20.58,0-30.8,0c0-5.21,0-10.22,0-15.23c-5.13,0.01-10.27,0.02-15.4,0.03
					c0-5.15,0-10.3,0-15.46c-15.95,0-31.35,0-47.08,0c0,5.24,0,10.33,0,15.43c-5.13,0-10.25,0-15.38,0c0,5.12,0,10.25,0,15.37
					c-5.1,0-10.21,0-15.45,0c0,20.94,0,41.55,0,62.49c5.2,0,10.27,0,15.53,0c0,10.46,0,20.58,0,30.99c5.2,0,10.2,0,15.31,0
					c0,5.4,0,10.51,0,15.62c5.11,0,10.22,0,15.6,0c0,5.13,0,10.13,0,15.42c5.34,0,10.41,0,15.62,0c0,5.32,0,10.34,0,15.36
					c5.07,0,10.14,0,15.41,0c0,5.53,0,10.69,0,15.85c5.17-0.01,10.35-0.02,15.52-0.03c5.23,0.02,10.47,0.03,15.7,0.05l0,0
					c0-4.58,0.06-9.15-0.02-13.73c-0.03-1.67,0.54-2.21,2.2-2.18c4.41,0.09,8.82,0.04,13.22,0.04c0,0,0,0,0,0
					c0-4.41,0.05-8.82-0.04-13.22c-0.03-1.65,0.5-2.23,2.17-2.2c4.58,0.09,9.15,0.03,13.73,0.02l0,0c0-4.4,0.06-8.81-0.02-13.21
					c-0.03-1.67,0.53-2.22,2.19-2.18c4.4,0.09,8.81,0.03,13.21,0.03c0,0,0,0,0,0c0-4.58,0.06-9.15-0.03-13.73
					c-0.03-1.67,0.54-2.21,2.19-2.18c4.41,0.09,8.82,0.04,13.22,0.04c0,0,0,0,0,0c0-9.39,0.04-18.78-0.05-28.17
					c-0.02-1.97,0.48-2.7,2.56-2.63c4.44,0.15,8.88,0.03,13.32,0.03c0,0,0.02-0.02,0.02-0.02
					C585.23,107.29,585.23,81.36,585.23,55.43z M474.54,71.22c-4.66-0.09-9.33-0.1-14-0.14c-5,0-10.01,0-15.18,0
					c0,5.21,0,10.13,0,15.39c-5.21,0-10.26,0-15.63,0c0,5.34,0,10.33,0,15.33c0.05,4.75,0.17,9.51,0.09,14.26
					c-0.01,0.59-1.01,1.66-1.57,1.68c-4.57,0.14-9.15,0.08-14.11,0.08c0-5.42,0-10.65,0-15.87c-0.01-5.09-0.02-10.19-0.02-15.28
					c0.02-5.27,0.05-10.54,0.07-15.82l0,0c5.13,0.01,10.26,0.03,15.39,0.04l0.02-0.02c-0.01-5.13-0.02-10.26-0.03-15.39l0,0
					c5.28-0.02,10.56-0.03,15.84-0.05c5.07,0.01,10.14,0.02,15.21,0.03c5.28,0.02,10.56,0.04,15.83,0.06l0,0
					c0.03,4.5,0.03,8.99,0.09,13.49C476.57,70.45,476.16,71.25,474.54,71.22z"/>
			</g>
			<g>
				<path class="st1" d="M538.56,210.58l0.11,0.11C538.67,210.69,538.6,210.62,538.56,210.58z"/>
				<path class="st2" d="M600.63,70.75c-0.01,20.83-0.01,41.65-0.02,62.48c5.13,0,10.25,0.01,15.38,0.01c0-20.82,0-41.65,0-62.47
					C610.87,70.76,605.75,70.75,600.63,70.75z"/>
				<path class="st2" d="M538.67,210.69l-0.11-0.11c-0.01-0.01-0.01-0.01-0.02-0.02l-0.02-0.02c-5.26,0.04-10.52,0.07-15.77,0.11
					c0,0,0,0,0,0c-0.03,5.26-0.06,10.53-0.09,15.79c0.07,0.07,0.14,0.13,0.21,0.19c5.24-0.05,10.48-0.1,15.72-0.15
					C538.61,221.22,538.64,215.96,538.67,210.69L538.67,210.69L538.67,210.69C538.67,210.69,538.67,210.69,538.67,210.69z"/>
				<path class="st2" d="M507.35,226.52C507.35,226.52,507.35,226.52,507.35,226.52c-0.01,5.09-0.01,10.18-0.02,15.28
					c5.14,0,10.28,0,15.53,0c0-5.3,0-10.22,0-15.15c-0.07-0.06-0.14-0.13-0.21-0.19C517.55,226.47,512.45,226.49,507.35,226.52z"/>
				<path class="st2" d="M585.23,133.22l-0.02,0.02c-0.01,10.23-0.03,20.45-0.04,30.68c0.06,0.06,0.13,0.13,0.2,0.19
					c5.09-0.04,10.17-0.07,15.26-0.11c-0.01-10.25-0.02-20.51-0.03-30.76C595.48,133.24,590.35,133.23,585.23,133.22z"/>
				<path class="st2" d="M569.38,164.02C569.38,164.02,569.38,164.02,569.38,164.02c-0.03,5.26-0.07,10.52-0.1,15.79
					c0,0,0.17,0.16,0.17,0.16c5.25-0.04,10.51-0.08,15.76-0.12c0.05-5.25,0.1-10.49,0.15-15.74c-0.07-0.06-0.13-0.13-0.2-0.19
					C579.91,163.96,574.64,163.99,569.38,164.02z"/>
				<path class="st2" d="M553.99,179.89C553.99,179.89,553.99,179.89,553.99,179.89c-0.03,5.1-0.06,10.19-0.09,15.29l0.13,0.13
					c5.11-0.01,10.22-0.03,15.33-0.04c0.03-5.1,0.06-10.19,0.09-15.29c0,0-0.17-0.16-0.17-0.16
					C564.18,179.83,559.08,179.86,553.99,179.89z"/>
				<path class="st2" d="M538.61,195.26C538.61,195.26,538.61,195.26,538.61,195.26c-0.03,5.1-0.06,10.19-0.09,15.29
					c0,0,0.01,0.01,0.02,0.02l0.02,0.02c0.04,0.04,0.11,0.11,0.11,0.11l0,0c5.1-0.02,10.21-0.04,15.31-0.06
					c0.02-5.11,0.03-10.22,0.05-15.33l-0.13-0.13C548.8,195.2,543.71,195.23,538.61,195.26z"/>
				<path class="st2" d="M538.54,210.56c0.01,0.01,0.01,0.01,0.02,0.02L538.54,210.56z"/>
				<polygon class="st2" points="538.67,210.69 538.67,210.69 538.67,210.69 				"/>
			</g>
			<path class="st3" d="M445.41,55.43c0,5,0,10,0,15.43c-5.53,0-10.67,0-15.81,0c0,0-0.02,0.02-0.02,0.02c0,5.1,0,10.19,0,15.78
				c-5.31,0-10.39,0-15.47,0c0.01,5.09,0.02,10.19,0.02,15.28c5.2-0.05,10.4-0.1,15.6-0.15c0-5,0-10,0-15.33c5.37,0,10.42,0,15.63,0
				c0-5.26,0-10.18,0-15.39c5.18,0,10.18,0,15.18,0c0.03-5.2,0.05-10.4,0.08-15.61C455.55,55.46,450.48,55.44,445.41,55.43z"/>
			<g>
				<path class="st4" d="M600.61,55.4c-5.13,0.01-10.25,0.02-15.38,0.04c0,25.93,0,51.86,0.01,77.79
					c5.12,0.01,10.24,0.02,15.36,0.03c0,0,0.01-0.02,0.01-0.02c0.01-20.83,0.01-41.65,0.02-62.48
					C600.62,65.63,600.62,60.51,600.61,55.4z"/>
				<path class="st4" d="M572.48,55.44c4.22-0.25,8.47-0.05,12.7-0.04c0-5.14,0-10.28,0-15.46c-5.62,0-10.71,0-15.81,0
					c0,4.07,0.14,8.14-0.06,12.2C569.2,54.62,569.77,55.6,572.48,55.44z"/>
				<path class="st4" d="M491.5,241.87c5.28-0.03,10.56-0.05,15.83-0.08c0-5.09,0.01-10.18,0.01-15.27
					c-5.23-0.02-10.47-0.03-15.7-0.05C491.6,231.6,491.55,236.74,491.5,241.87z"/>
				<path class="st4" d="M571.89,133.22c-2.09-0.07-2.58,0.66-2.56,2.63c0.09,9.39,0.05,18.78,0.05,28.17
					c5.26-0.03,10.53-0.06,15.79-0.1c0.01-10.23,0.03-20.45,0.04-30.68C580.77,133.25,576.33,133.36,571.89,133.22z"/>
				<path class="st4" d="M556.16,163.98c-1.65-0.03-2.23,0.5-2.19,2.18c0.09,4.57,0.03,9.15,0.03,13.73
					c5.1-0.03,10.2-0.05,15.29-0.08c0.03-5.26,0.07-10.52,0.1-15.79C564.97,164.02,560.56,164.07,556.16,163.98z"/>
				<path class="st4" d="M524.88,195.24c-1.68-0.03-2.21,0.55-2.17,2.2c0.09,4.41,0.04,8.81,0.04,13.22
					c5.26-0.04,10.52-0.08,15.77-0.11c0.03-5.09,0.06-10.19,0.09-15.28C534.03,195.26,529.45,195.32,524.88,195.24z"/>
				<path class="st4" d="M509.52,210.61c-1.65-0.03-2.23,0.5-2.2,2.18c0.09,4.58,0.03,9.15,0.02,13.73c5.1-0.02,10.2-0.05,15.3-0.07
					c0.03-5.26,0.06-10.53,0.09-15.79C518.34,210.65,513.93,210.7,509.52,210.61z"/>
				<path class="st4" d="M540.77,179.86c-1.66-0.03-2.22,0.52-2.19,2.18c0.09,4.4,0.03,8.81,0.02,13.21
					c5.1-0.03,10.19-0.06,15.29-0.08c0.03-5.09,0.06-10.19,0.09-15.28C549.58,179.89,545.18,179.95,540.77,179.86z"/>
			</g>
			<g>
				<path class="st5" d="M476.45,55.52c-5.28-0.02-10.55-0.04-15.83-0.06c-0.03,5.2-0.05,10.4-0.08,15.61
					c4.67,0.04,9.33,0.05,14,0.14c1.62,0.03,2.03-0.77,2.01-2.2C476.48,64.52,476.48,60.02,476.45,55.52z"/>
				<path class="st5" d="M414.13,101.95c0,5.22,0,10.45,0,15.87c4.96,0,9.54,0.06,14.11-0.08c0.57-0.02,1.57-1.09,1.57-1.68
					c0.08-4.75-0.03-9.51-0.09-14.26C424.53,101.85,419.33,101.9,414.13,101.95z"/>
				<path class="st5" d="M429.57,70.89c-5.13-0.01-10.26-0.03-15.39-0.04c-0.02,5.27-0.05,10.54-0.07,15.82c5.08,0,10.16,0,15.47,0
					C429.57,81.08,429.57,75.99,429.57,70.89z"/>
				<path class="st5" d="M429.6,70.87c5.14,0,10.28,0,15.81,0c0-5.44,0-10.44,0-15.43c-5.28,0.02-10.56,0.03-15.84,0.05
					C429.57,60.61,429.58,65.74,429.6,70.87z"/>
			</g>
		</g>
		<g>
			<path class="st7" d="M365.49,118.12c3.13-2.32,5.73-3.29,5.82,2.25C369.38,119.62,367.43,118.87,365.49,118.12z"/>
			<path class="st7" d="M363.81,71c-1.51,0.83-3.02,1.67-4.53,2.5C360.79,72.66,362.3,71.83,363.81,71z"/>
			<path class="st7" d="M359.3,73.49c-0.41,0.49-0.81,0.98-1.22,1.47C358.48,74.46,358.89,73.97,359.3,73.49z"/>
			<g>
				<path class="st7" d="M359.28,73.5c0.01,0,0.01-0.01,0.02-0.01c0,0,0,0,0,0L359.28,73.5z"/>
				<path class="st7" d="M382.9,77.52c-2.43,0.43-4.86,0.86-7.29,1.29c-0.06-0.99-0.12-1.99-0.17-2.98c2.5,0.35,4.99,0.7,7.49,1.05
					c-0.11-1.46-0.21-2.93-0.32-4.39c-6.27-0.5-12.54-1-18.8-1.49c-1.5,0.83-3.01,1.66-4.51,2.49c-0.41,0.49-0.81,0.98-1.22,1.47
					c-0.13,0.76-0.26,1.52-0.38,2.27c0.27,0.57,0.53,1.14,0.8,1.71c-0.13,0.05-0.25,0.1-0.38,0.14c-0.18-0.6-0.35-1.19-0.53-1.79
					c-8.99-4.43-17.74-9.87-28.52-6.78c1.08,9.84,1.16,19.94,3.55,29.45c1.91,7.58,6.65,14.46,10.13,21.65
					c7.58-1.16,15.17-2.32,22.75-3.48c3.13-2.32,5.73-3.29,5.82,2.25c0.55,0.15,1.09,0.3,1.64,0.44
					C379.34,107.08,384.43,93.06,382.9,77.52z M360.73,107.82c-0.4,1.8-0.8,3.6-1.2,5.4c-0.82,0.23-1.65,0.46-2.47,0.69
					c-1.26-2.95-2.52-5.9-3.78-8.84c-1.44-0.42-2.89-0.83-4.33-1.25c-2.3-2.39-4.6-4.78-6.9-7.17c-2.06-6.02-4.12-12.06-6.17-18.1
					c0.89-0.27,1.78-0.53,2.67-0.8c2.53,5.64,8.43,10.22,4.63,17.86c1.79,1.69,3.58,3.37,5.38,5.06c1.59,1.45,3.18,2.9,4.76,4.35
					c1.44,0,2.87,0.01,4.31,0.01c0.59-5.94,1.17-11.89,1.76-17.83c-0.04-0.54-0.09-1.08-0.13-1.62c-0.64-0.53-1.28-1.05-1.92-1.58
					c0.16-0.15,0.32-0.31,0.48-0.46c0.52,0.65,1.04,1.3,1.56,1.94c0.47,0.59,0.93,1.19,1.4,1.78
					C360.75,94.12,360.74,100.97,360.73,107.82z"/>
			</g>
			<path class="st7" d="M382.9,77.52c-2.43,0.43-4.86,0.86-7.29,1.29c-0.06-0.99-0.12-1.99-0.17-2.98c2.5,0.35,4.99,0.7,7.49,1.05
				c0,0,0.23,0.33,0.23,0.33L382.9,77.52z"/>
			<path class="st8" d="M342.04,96.65c-2.06-6.04-4.11-12.07-6.17-18.11c0.89-0.27,1.78-0.53,2.67-0.8
				c2.53,5.64,8.43,10.22,4.63,17.86C342.8,95.96,342.42,96.31,342.04,96.65z"/>
			<path class="st9" d="M357.62,105.04c0.59-5.94,1.17-11.89,1.76-17.83c0,0,0.69-0.06,0.69-0.06s0.69,0.12,0.69,0.12
				c-0.01,6.85-0.02,13.7-0.03,20.56C359.69,106.9,358.66,105.97,357.62,105.04z"/>
			<path class="st7" d="M357.62,105.04c1.04,0.93,2.07,1.86,3.1,2.79c-0.4,1.8-0.8,3.6-1.2,5.39c-0.82,0.23-1.65,0.46-2.47,0.69
				c-1.26-2.95-2.52-5.9-3.78-8.84c0,0,0.04-0.04,0.04-0.04C354.75,105.03,356.19,105.03,357.62,105.04z"/>
			<path class="st8" d="M343.17,95.62c1.79,1.69,3.58,3.37,5.38,5.06c0.13,1.05,0.26,2.09,0.4,3.14c-2.3-2.39-4.6-4.78-6.9-7.16
				C342.42,96.31,342.8,95.96,343.17,95.62z"/>
			<path class="st7" d="M348.95,103.81c-0.13-1.05-0.26-2.1-0.4-3.14c1.59,1.45,3.17,2.9,4.76,4.35c0,0-0.04,0.04-0.04,0.04
				C351.83,104.65,350.39,104.23,348.95,103.81z"/>
			<path class="st7" d="M359.24,85.59c-0.64-0.53-1.28-1.06-1.91-1.58c0.16-0.15,0.32-0.31,0.48-0.46c0.52,0.65,1.04,1.3,1.56,1.94
				C359.36,85.49,359.24,85.59,359.24,85.59z"/>
			<path class="st7" d="M357.69,77.22c0.27,0.57,0.53,1.14,0.8,1.71c-0.13,0.05-0.25,0.1-0.38,0.14c-0.18-0.6-0.35-1.19-0.53-1.79
				C357.58,77.29,357.69,77.22,357.69,77.22z"/>
			<path class="st7" d="M360.76,87.27l-0.69-0.12c0,0-0.7,0.06-0.69,0.06c-0.04-0.54-0.09-1.08-0.13-1.62c0,0,0.12-0.1,0.12-0.1
				C359.83,86.08,360.29,86.68,360.76,87.27z"/>
		</g>
		<path class="st3" d="M538.3,181.04c-5.53,0-10.67,0-15.81,0c0,0-0.02,0.02-0.02,0.02c0,5.1,0,10.19,0,15.78
			c-5.31,0-10.39,0-15.47,0c0.01,5.09,0.02,10.19,0.02,15.28c5.2-0.05,10.4-0.1,15.6-0.15c0-5,0-10,0-15.33c5.37,0,10.42,0,15.63,0
			c0-5.26,0-10.18,0-15.39"/>
		<ellipse class="st7" cx="626.89" cy="42.95" rx="10.53" ry="1.89"/>
		<ellipse class="st7" cx="87.01" cy="42.95" rx="10.53" ry="1.89"/>
		<ellipse class="st7" cx="87.01" cy="41.05" rx="9" ry="3.32"/>
		<ellipse class="st7" cx="628.42" cy="41.05" rx="9" ry="3.32"/>
	</g>
	<g>
		<path d="M94.33,363.42H24.78v-7.73h-7.73v-61.83h7.73v-7.73h69.56v15.46H47.96v46.37h15.46V332.5h-7.73v-15.46h38.64V363.42z"/>
		<path d="M186.77,363.42h-77.28v-77.28h30.91v61.83h46.37V363.42z"/>
		<path d="M233.14,363.42h-30.91v-77.28h30.91V363.42z"/>
		<path d="M325.88,301.59h-23.19v61.83h-30.91v-61.83h-23.19v-15.46h77.28V301.59z"/>
		<path d="M418.62,363.42h-69.56v-7.73h-7.73v-61.83h7.73v-7.73h69.56v15.46h-46.37v46.37h46.37V363.42z"/>
		<path d="M511.36,363.42h-30.91V332.5h-15.46v30.91h-30.91v-77.28h30.91v30.91h15.46v-30.91h30.91V363.42z"/>
		<path d="M604.1,363.42h-69.56v-7.73h-7.73v-61.83h7.73v-7.73h69.56v15.46h-46.37v15.46h23.18v15.46h-23.18v15.46h46.37V363.42z"/>
		<path d="M696.84,355.69h-7.73v7.73h-69.56v-77.28h69.56v7.73h7.73V355.69z M665.93,347.96v-46.37h-15.46v46.37H665.93z"/>
	</g>
	<path class="st5" d="M522.77,181.08c-5.13-0.01-10.26-0.03-15.39-0.04c-0.02,5.27-0.05,10.54-0.07,15.82c5.08,0,10.16,0,15.47,0
		C522.77,191.27,522.77,186.17,522.77,181.08z"/>
	<path class="st5" d="M507.16,196.95c-5.13-0.01-10.26-0.03-15.39-0.04c-0.02,5.27-0.05,10.54-0.07,15.82c5.08,0,10.16,0,15.47,0
		C507.16,207.14,507.16,202.05,507.16,196.95z"/>
	<path class="st5" d="M538.39,165.26c-5.13-0.01-10.26-0.03-15.39-0.04c-0.02,5.27-0.05,10.54-0.07,15.82c5.08,0,10.16,0,15.47,0
		C538.39,175.45,538.39,170.36,538.39,165.26z"/>
</g>
</svg>
