<svg id="Layer_1" data-name="Layer 1" xmlns="http://www.w3.org/2000/svg" viewBox="0 0 486.63 150.21"><defs><style>.cls-1{fill:#f1f2f2;}.cls-2{opacity:0.15;}.cls-3{fill:#fff;}</style></defs><path class="cls-1" d="M-396.81,212-403,200.61h-.1V212h-4V188.6h4v10.13h.1l5.94-10.13h4.46l-6.87,10.76,7.29,12.6Z" transform="translate(523.94 -145.85)"/><path class="cls-1" d="M-383,212V188.6h10.46v3.5h-6.66v6.2H-373v3.23h-6.17v6.9h7V212Z" transform="translate(523.94 -145.85)"/><path class="cls-1" d="M-362,212V188.6h4v19.7h6.44V212Z" transform="translate(523.94 -145.85)"/><path class="cls-1" d="M-342.43,212V188.6h4v19.7H-332V212Z" transform="translate(523.94 -145.85)"/><path class="cls-1" d="M-322.83,212V188.6h4V212Z" transform="translate(523.94 -145.85)"/><path class="cls-1" d="M-287.2,210.61a5.4,5.4,0,0,1-4.61,1.95,5.7,5.7,0,0,1-3.76-1.24,6,6,0,0,1-2-3.32l3.3-1.42a3.69,3.69,0,0,0,.78,1.57,1.87,1.87,0,0,0,1.53.71,1.79,1.79,0,0,0,1.82-1.09,8,8,0,0,0,.46-3V188.6h3.92v16.56A8.87,8.87,0,0,1-287.2,210.61Z" transform="translate(523.94 -145.85)"/><path class="cls-1" d="M-264.81,212l-1.16-5h-6.14l-1.18,5h-4l5.8-23.36h5.05l5.71,23.36Zm-4.13-19.63h-.13l-2.54,11.58h5.15Z" transform="translate(523.94 -145.85)"/><path class="cls-1" d="M-242,212l-3.63-10h-2.21v10h-3.83V188.6H-245a8.7,8.7,0,0,1,2.67.38,5.21,5.21,0,0,1,2.1,1.2,5.68,5.68,0,0,1,1.37,2.08,8.2,8.2,0,0,1,.49,3,7.64,7.64,0,0,1-.34,2.4,6.43,6.43,0,0,1-.88,1.76,4.64,4.64,0,0,1-1.17,1.17,4,4,0,0,1-1.27.61l4.19,10.76Zm-.26-16.5a4.43,4.43,0,0,0-.3-1.75,3,3,0,0,0-.77-1.09,2.93,2.93,0,0,0-1.08-.56,4.36,4.36,0,0,0-1.18-.16h-2.25v7.19h2.25a3.3,3.3,0,0,0,2.39-.91A3.59,3.59,0,0,0-242.24,195.46Z" transform="translate(523.94 -145.85)"/><path class="cls-1" d="M-218.45,212l-3.63-10h-2.21v10h-3.83V188.6h6.67a8.7,8.7,0,0,1,2.67.38,5.34,5.34,0,0,1,2.1,1.2,5.68,5.68,0,0,1,1.37,2.08,8.2,8.2,0,0,1,.49,3,7.35,7.35,0,0,1-.35,2.4,6.42,6.42,0,0,1-.87,1.76,4.64,4.64,0,0,1-1.17,1.17,4,4,0,0,1-1.27.61l4.19,10.76Zm-.26-16.5a4.43,4.43,0,0,0-.3-1.75,2.91,2.91,0,0,0-.78-1.09,2.82,2.82,0,0,0-1.07-.56,4.38,4.38,0,0,0-1.19-.16h-2.24v7.19H-222a3.31,3.31,0,0,0,2.4-.91A3.63,3.63,0,0,0-218.71,195.46Z" transform="translate(523.94 -145.85)"/><path class="cls-1" d="M-204.59,212V188.6h10.46v3.5h-6.66v6.2h6.17v3.23h-6.17v6.9h7V212Z" transform="translate(523.94 -145.85)"/><path class="cls-1" d="M-183.6,212V188.6h4v19.7h6.44V212Z" transform="translate(523.94 -145.85)"/><path class="cls-1" d="M-164,212V188.6h4v19.7h6.44V212Z" transform="translate(523.94 -145.85)"/><path class="cls-1" d="M-103.67,227.25H-453.38V176.11h349.71Zm-345.71-4h341.71V180.11H-449.38Z" transform="translate(523.94 -145.85)"/><rect class="cls-1" x="143.98" y="120.89" width="202.86" height="1.79"/><g class="cls-2"><path class="cls-3" d="M-327.21,213.31l71.49-67.46h21.85L-309.6,214l80,82.1h-22.49l-75.09-80h-.21" transform="translate(523.94 -145.85)"/><polygon class="cls-3" points="196.51 150.21 211.79 150.21 211.79 98.97 196.51 79.76 196.51 150.21"/><polygon class="cls-3" points="211.79 42.85 196.51 57.4 196.51 0 211.79 0 211.79 42.85"/></g><path class="cls-1" d="M-516.39,241.25a2.23,2.23,0,0,0-.81-.88,2.22,2.22,0,0,0-1.15-.3,2.45,2.45,0,0,0-1.27.35,4.07,4.07,0,0,0-1,.91,6.77,6.77,0,0,0-.83,1.34,10.61,10.61,0,0,0-.62,1.6,11.5,11.5,0,0,0-.38,1.72,10.9,10.9,0,0,0-.13,1.67,7.44,7.44,0,0,0,.14,1.48,3.29,3.29,0,0,0,.43,1.13,2.24,2.24,0,0,0,.76.74,2.34,2.34,0,0,0,1.14.26,3.44,3.44,0,0,0,1.08-.17,3,3,0,0,0,.84-.45l.76-4.39h-1.83l.2-1h3l-1.07,6.12a5.38,5.38,0,0,1-1.4.76,5.21,5.21,0,0,1-1.79.29,3.41,3.41,0,0,1-1.58-.34,3.09,3.09,0,0,1-1.12-.94,4.52,4.52,0,0,1-.67-1.47,7.6,7.6,0,0,1-.23-1.92,12.25,12.25,0,0,1,.41-3.08,11.12,11.12,0,0,1,1.15-2.82,7,7,0,0,1,1.81-2.06,3.78,3.78,0,0,1,2.35-.8,3.64,3.64,0,0,1,1.65.36,2.52,2.52,0,0,1,1.13,1.13Z" transform="translate(523.94 -145.85)"/><path class="cls-1" d="M-501.21,242.12a4.55,4.55,0,0,1-.23,1.48,3.71,3.71,0,0,1-.63,1.16,3.51,3.51,0,0,1-.92.8,3.33,3.33,0,0,1-1.15.43l1.75,6.12h-1.26l-1.65-6H-507l-1,6h-1.2l2.23-12.85h2.78a3.23,3.23,0,0,1,2.18.7A2.69,2.69,0,0,1-501.21,242.12Zm-1.18.15a1.8,1.8,0,0,0-.58-1.49,2.21,2.21,0,0,0-1.44-.47H-506l-.83,4.84h1.7A2.94,2.94,0,0,0-504,245a2.41,2.41,0,0,0,.85-.59,2.81,2.81,0,0,0,.57-.91A3.5,3.5,0,0,0-502.39,242.27Z" transform="translate(523.94 -145.85)"/><path class="cls-1" d="M-489.69,252.11l-.15-3.23h-4l-1.45,3.23h-1.27l5.81-12.85h1.67l.65,12.85Zm-.42-11.73h-.07l-3.29,7.52h3.63Z" transform="translate(523.94 -145.85)"/><path class="cls-1" d="M-473.47,242.14a5.33,5.33,0,0,1-.27,1.76,3.88,3.88,0,0,1-.77,1.33,3.27,3.27,0,0,1-1.2.83,3.79,3.79,0,0,1-1.53.29h-1.87l-1,5.76h-1.21l2.23-12.85h2.74a3.49,3.49,0,0,1,1.14.17,2.41,2.41,0,0,1,.92.53,2.65,2.65,0,0,1,.61.91A3.52,3.52,0,0,1-473.47,242.14Zm-1.21.13a2.11,2.11,0,0,0-.46-1.44,1.77,1.77,0,0,0-1.39-.52h-1.55l-.85,5h1.67a2.37,2.37,0,0,0,1.87-.81A3.27,3.27,0,0,0-474.68,242.27Z" transform="translate(523.94 -145.85)"/><path class="cls-1" d="M-460.25,252.11h-1.22l1.07-6.12h-5l-1.05,6.12h-1.24l2.23-12.85h1.24l-1,5.64h4.95l1-5.64H-458Z" transform="translate(523.94 -145.85)"/><path class="cls-1" d="M-450.67,252.11h-1.24l2.24-12.85h1.23Z" transform="translate(523.94 -145.85)"/><path class="cls-1" d="M-434.43,241.23a2.1,2.1,0,0,0-2-1.16,2.5,2.5,0,0,0-1.25.34,3.92,3.92,0,0,0-1.06.91,6.45,6.45,0,0,0-.85,1.33,11.41,11.41,0,0,0-.61,1.61,11.11,11.11,0,0,0-.38,1.71,10.9,10.9,0,0,0-.13,1.67,7.24,7.24,0,0,0,.13,1.43,3.8,3.8,0,0,0,.4,1.15,2.21,2.21,0,0,0,.75.77,2.11,2.11,0,0,0,1.13.28,2.45,2.45,0,0,0,1.4-.4,4.3,4.3,0,0,0,1-.92l.67.81a5,5,0,0,1-1.42,1.2,3.78,3.78,0,0,1-1.89.45,3.19,3.19,0,0,1-1.52-.34,3.09,3.09,0,0,1-1.1-1,4.23,4.23,0,0,1-.66-1.49,7.51,7.51,0,0,1-.22-1.9,12.47,12.47,0,0,1,.41-3.14,10.71,10.71,0,0,1,1.16-2.81,7,7,0,0,1,1.81-2,3.83,3.83,0,0,1,2.34-.78,3.51,3.51,0,0,1,1.64.36,2.66,2.66,0,0,1,1.12,1.11Z" transform="translate(523.94 -145.85)"/><path class="cls-1" d="M-410.82,244.17a11.66,11.66,0,0,1-.39,3.06,8.14,8.14,0,0,1-1.14,2.53,5.62,5.62,0,0,1-1.86,1.71,5,5,0,0,1-2.52.64h-2.76l2.23-12.85h2.63a3.8,3.8,0,0,1,1.72.36,3.28,3.28,0,0,1,1.18,1,4.8,4.8,0,0,1,.69,1.55A8.25,8.25,0,0,1-410.82,244.17Zm-1.25.06a5.09,5.09,0,0,0-.69-2.85,2.32,2.32,0,0,0-2.07-1h-1.41L-418.09,251h1.54a3.31,3.31,0,0,0,1.84-.55,4.88,4.88,0,0,0,1.42-1.47,7.31,7.31,0,0,0,.9-2.16A10.48,10.48,0,0,0-412.07,244.23Z" transform="translate(523.94 -145.85)"/><path class="cls-1" d="M-397.3,240.35h-3.83l-.79,4.55h3.64l-.18,1h-3.63L-403,251h4.12l-.2,1.11h-5.3l2.23-12.85h5Z" transform="translate(523.94 -145.85)"/><path class="cls-1" d="M-384.87,241a2.31,2.31,0,0,0-.82-.69,2.54,2.54,0,0,0-1.06-.22,2.34,2.34,0,0,0-.85.17,2.3,2.3,0,0,0-.79.5,2.47,2.47,0,0,0-.58.84,3.07,3.07,0,0,0-.22,1.18,2,2,0,0,0,.46,1.37,4.89,4.89,0,0,0,1.11.93c.29.19.56.38.83.59a4.52,4.52,0,0,1,.72.73,3.51,3.51,0,0,1,.51.91,3.3,3.3,0,0,1,.19,1.13,4.62,4.62,0,0,1-.29,1.68,3.73,3.73,0,0,1-.8,1.25,3.4,3.4,0,0,1-1.19.79,4,4,0,0,1-1.46.27,3.85,3.85,0,0,1-1.78-.4,3.58,3.58,0,0,1-1.27-1l.85-.89a2.75,2.75,0,0,0,.95.88,2.48,2.48,0,0,0,1.25.32,2.8,2.8,0,0,0,.95-.17,2.48,2.48,0,0,0,.8-.51,2.48,2.48,0,0,0,.56-.83,2.73,2.73,0,0,0,.21-1.1,2.36,2.36,0,0,0-.47-1.48,4.78,4.78,0,0,0-1.27-1.1,5.91,5.91,0,0,1-.77-.54,3.38,3.38,0,0,1-.67-.69,3.43,3.43,0,0,1-.46-.87,3.58,3.58,0,0,1-.17-1.13,4.25,4.25,0,0,1,.3-1.62,3.76,3.76,0,0,1,.81-1.23,3.38,3.38,0,0,1,1.18-.78,3.75,3.75,0,0,1,1.43-.27,3.88,3.88,0,0,1,1.56.29,2.52,2.52,0,0,1,1.11.87Z" transform="translate(523.94 -145.85)"/><path class="cls-1" d="M-377,252.11h-1.23l2.23-12.85h1.23Z" transform="translate(523.94 -145.85)"/><path class="cls-1" d="M-360.76,241.25a2.25,2.25,0,0,0-.82-.88,2.21,2.21,0,0,0-1.14-.3,2.49,2.49,0,0,0-1.28.35,4.24,4.24,0,0,0-1.05.91,6.77,6.77,0,0,0-.83,1.34,11.79,11.79,0,0,0-.62,1.6,11.5,11.5,0,0,0-.38,1.72,12.33,12.33,0,0,0-.13,1.67,7.44,7.44,0,0,0,.14,1.48,3.29,3.29,0,0,0,.43,1.13,2.18,2.18,0,0,0,.77.74,2.28,2.28,0,0,0,1.13.26,3.4,3.4,0,0,0,1.08-.17,3,3,0,0,0,.84-.45l.77-4.39h-1.84l.2-1h3l-1.07,6.12a5.32,5.32,0,0,1-1.39.76,5.23,5.23,0,0,1-1.8.29,3.41,3.41,0,0,1-1.58-.34,3.09,3.09,0,0,1-1.12-.94,4.52,4.52,0,0,1-.67-1.47,7.62,7.62,0,0,1-.22-1.92,12.23,12.23,0,0,1,.4-3.08,11.13,11.13,0,0,1,1.16-2.82,6.81,6.81,0,0,1,1.8-2.06,3.78,3.78,0,0,1,2.35-.8,3.64,3.64,0,0,1,1.65.36,2.52,2.52,0,0,1,1.13,1.13Z" transform="translate(523.94 -145.85)"/><path class="cls-1" d="M-346.39,252.11h-1.51l-2.67-10.75h0l-1.85,10.75h-1.15l2.24-12.85h1.52l2.6,10.74h.05l1.89-10.74h1.14Z" transform="translate(523.94 -145.85)"/><path class="cls-1" d="M-331,240.35h-3.83l-.8,4.55H-332l-.18,1h-3.63l-.87,5.05h4.12l-.2,1.11H-338l2.23-12.85h5Z" transform="translate(523.94 -145.85)"/><path class="cls-1" d="M-317.19,242.12a4.55,4.55,0,0,1-.23,1.48,3.9,3.9,0,0,1-.62,1.16,3.73,3.73,0,0,1-.93.8,3.28,3.28,0,0,1-1.14.43l1.74,6.12h-1.25l-1.65-6H-323l-1,6h-1.19l2.23-12.85h2.78a3.2,3.2,0,0,1,2.17.7A2.66,2.66,0,0,1-317.19,242.12Zm-1.18.15a1.83,1.83,0,0,0-.57-1.49,2.21,2.21,0,0,0-1.44-.47h-1.57l-.83,4.84h1.71A2.85,2.85,0,0,0-320,245a2.45,2.45,0,0,0,.86-.59,2.63,2.63,0,0,0,.56-.91A3.5,3.5,0,0,0-318.37,242.27Z" transform="translate(523.94 -145.85)"/><path class="cls-1" d="M-302.8,252.7l-.82-.18,5.72-14.08.82.18Z" transform="translate(523.94 -145.85)"/><path class="cls-1" d="M-276.32,240.38h-3.85L-281,245h3.59l-.18,1.05h-3.58l-1.05,6h-1.22l2.24-12.85h5.08Z" transform="translate(523.94 -145.85)"/><path class="cls-1" d="M-262.91,242.12a4.56,4.56,0,0,1-.22,1.48,4.16,4.16,0,0,1-.63,1.16,3.73,3.73,0,0,1-.93.8,3.28,3.28,0,0,1-1.14.43l1.74,6.12h-1.25l-1.65-6h-1.69l-1,6h-1.2l2.23-12.85h2.78a3.24,3.24,0,0,1,2.18.7A2.68,2.68,0,0,1-262.91,242.12Zm-1.18.15a1.83,1.83,0,0,0-.57-1.49,2.21,2.21,0,0,0-1.44-.47h-1.56l-.84,4.84h1.71a2.94,2.94,0,0,0,1.09-.19,2.5,2.5,0,0,0,.85-.59,2.63,2.63,0,0,0,.56-.91A3.27,3.27,0,0,0-264.09,242.27Z" transform="translate(523.94 -145.85)"/><path class="cls-1" d="M-247.68,243.65a13.21,13.21,0,0,1-.38,3.1,11.41,11.41,0,0,1-1.09,2.82,6.57,6.57,0,0,1-1.71,2.05,3.48,3.48,0,0,1-2.23.79,3.25,3.25,0,0,1-1.5-.33,3.07,3.07,0,0,1-1.08-1,4.16,4.16,0,0,1-.65-1.46,7.35,7.35,0,0,1-.22-1.88,14.91,14.91,0,0,1,.16-2.08,12.15,12.15,0,0,1,.49-2,10.2,10.2,0,0,1,.79-1.85,7,7,0,0,1,1.07-1.49,4.74,4.74,0,0,1,1.33-1,3.44,3.44,0,0,1,1.59-.37,3.15,3.15,0,0,1,1.51.34,3,3,0,0,1,1.07,1,4.39,4.39,0,0,1,.64,1.49A8.16,8.16,0,0,1-247.68,243.65Zm-1.31.18a9.36,9.36,0,0,0-.1-1.41,4.22,4.22,0,0,0-.35-1.2,2.39,2.39,0,0,0-.67-.85,1.74,1.74,0,0,0-1.07-.32,2.34,2.34,0,0,0-1.74.78,6.59,6.59,0,0,0-1.27,1.94,12.25,12.25,0,0,0-.78,2.53,14,14,0,0,0-.26,2.56,6.28,6.28,0,0,0,.13,1.34,3.45,3.45,0,0,0,.39,1.08,2,2,0,0,0,.68.73,1.87,1.87,0,0,0,1,.26,2.19,2.19,0,0,0,1.16-.33,3.42,3.42,0,0,0,1-.88,6.27,6.27,0,0,0,.8-1.29,10.16,10.16,0,0,0,.59-1.57,12.09,12.09,0,0,0,.36-1.69A10.93,10.93,0,0,0-249,243.83Z" transform="translate(523.94 -145.85)"/><path class="cls-1" d="M-234,252.11h-1.5l-2.67-10.75h0l-1.85,10.75h-1.14l2.23-12.85h1.52l2.6,10.74h0l1.89-10.74h1.14Z" transform="translate(523.94 -145.85)"/><path class="cls-1" d="M-218.95,240.31h-2.49l-2.05,11.8h-1.23l2.06-11.8h-2.48l.18-1.05h6.19Z" transform="translate(523.94 -145.85)"/><path class="cls-1" d="M-198.7,240.35h-3.83l-.8,4.55h3.65l-.18,1h-3.63l-.87,5.05h4.12l-.2,1.11h-5.3l2.23-12.85h5Z" transform="translate(523.94 -145.85)"/><path class="cls-1" d="M-185.69,252.11h-1.5l-2.67-10.75h0l-1.85,10.75h-1.14l2.23-12.85h1.53l2.59,10.74h0l1.89-10.74h1.15Z" transform="translate(523.94 -145.85)"/><path class="cls-1" d="M-168.66,244.17a11.66,11.66,0,0,1-.39,3.06,7.93,7.93,0,0,1-1.15,2.53,5.62,5.62,0,0,1-1.86,1.71,5,5,0,0,1-2.52.64h-2.76l2.23-12.85h2.64a3.78,3.78,0,0,1,1.71.36,3.2,3.2,0,0,1,1.18,1,4.41,4.41,0,0,1,.69,1.55A8.24,8.24,0,0,1-168.66,244.17Zm-1.26.06a5.18,5.18,0,0,0-.68-2.85,2.32,2.32,0,0,0-2.07-1h-1.42L-175.94,251h1.54a3.29,3.29,0,0,0,1.84-.55,4.76,4.76,0,0,0,1.42-1.47,7.32,7.32,0,0,0,.91-2.16A10.49,10.49,0,0,0-169.92,244.23Z" transform="translate(523.94 -145.85)"/><path class="cls-1" d="M-144.71,244.17a11.66,11.66,0,0,1-.39,3.06,8.14,8.14,0,0,1-1.14,2.53,5.62,5.62,0,0,1-1.86,1.71,5,5,0,0,1-2.52.64h-2.76l2.23-12.85h2.63a3.8,3.8,0,0,1,1.72.36,3.28,3.28,0,0,1,1.18,1,4.8,4.8,0,0,1,.69,1.55A8.25,8.25,0,0,1-144.71,244.17Zm-1.25.06a5.09,5.09,0,0,0-.69-2.85,2.32,2.32,0,0,0-2.07-1h-1.41L-152,251h1.55a3.31,3.31,0,0,0,1.84-.55,4.73,4.73,0,0,0,1.41-1.47,7.07,7.07,0,0,0,.91-2.16A10.48,10.48,0,0,0-146,244.23Z" transform="translate(523.94 -145.85)"/><path class="cls-1" d="M-131.19,240.35H-135l-.79,4.55h3.64l-.18,1H-136l-.87,5.05h4.12l-.2,1.11h-5.3l2.23-12.85h5Z" transform="translate(523.94 -145.85)"/><path class="cls-1" d="M-121.95,252.11h-1.62l-.94-12.85h1.33l.65,11.45h0l4.68-11.45h1.32Z" transform="translate(523.94 -145.85)"/><path class="cls-1" d="M-104.65,240.35h-3.83l-.8,4.55h3.65l-.19,1h-3.63l-.87,5.05h4.12l-.2,1.11h-5.3l2.24-12.85h5Z" transform="translate(523.94 -145.85)"/><path class="cls-1" d="M-93.95,252.11h-4.9l2.24-12.85h1.23l-2,11.7h3.66Z" transform="translate(523.94 -145.85)"/><path class="cls-1" d="M-78.3,243.65a13.21,13.21,0,0,1-.38,3.1,11.41,11.41,0,0,1-1.09,2.82,6.57,6.57,0,0,1-1.71,2.05,3.48,3.48,0,0,1-2.23.79,3.25,3.25,0,0,1-1.5-.33,3.07,3.07,0,0,1-1.08-1,4.16,4.16,0,0,1-.65-1.46,7.35,7.35,0,0,1-.22-1.88,14.91,14.91,0,0,1,.16-2.08,12.15,12.15,0,0,1,.49-2,10.93,10.93,0,0,1,.78-1.85,7.41,7.41,0,0,1,1.08-1.49,4.74,4.74,0,0,1,1.33-1,3.44,3.44,0,0,1,1.59-.37,3.15,3.15,0,0,1,1.51.34,3,3,0,0,1,1.07,1,4.39,4.39,0,0,1,.64,1.49A8.16,8.16,0,0,1-78.3,243.65Zm-1.31.18a9.36,9.36,0,0,0-.1-1.41,4.22,4.22,0,0,0-.35-1.2,2.39,2.39,0,0,0-.67-.85,1.75,1.75,0,0,0-1.08-.32,2.34,2.34,0,0,0-1.73.78,6.59,6.59,0,0,0-1.27,1.94,12.25,12.25,0,0,0-.78,2.53,14,14,0,0,0-.26,2.56,7,7,0,0,0,.12,1.34,3.73,3.73,0,0,0,.4,1.08,2,2,0,0,0,.68.73,1.87,1.87,0,0,0,1,.26,2.19,2.19,0,0,0,1.16-.33,3.42,3.42,0,0,0,1-.88,6.27,6.27,0,0,0,.8-1.29,10.16,10.16,0,0,0,.59-1.57,12.09,12.09,0,0,0,.36-1.69A10.93,10.93,0,0,0-79.61,243.83Z" transform="translate(523.94 -145.85)"/><path class="cls-1" d="M-64,242.14a5.33,5.33,0,0,1-.28,1.76,3.88,3.88,0,0,1-.77,1.33,3.27,3.27,0,0,1-1.2.83,3.79,3.79,0,0,1-1.53.29h-1.87l-1,5.76h-1.21l2.23-12.85h2.74a3.49,3.49,0,0,1,1.14.17,2.41,2.41,0,0,1,.92.53,2.65,2.65,0,0,1,.61.91A3.51,3.51,0,0,1-64,242.14Zm-1.22.13a2.06,2.06,0,0,0-.46-1.44,1.77,1.77,0,0,0-1.39-.52h-1.54l-.86,5h1.67a2.35,2.35,0,0,0,1.87-.81A3.27,3.27,0,0,0-65.18,242.27Z" transform="translate(523.94 -145.85)"/><path class="cls-1" d="M-51.12,240.35h-3.83l-.79,4.55h3.64l-.18,1h-3.63l-.87,5.05h4.12l-.2,1.11h-5.3l2.23-12.85h5Z" transform="translate(523.94 -145.85)"/><path class="cls-1" d="M-37.3,242.12a4.55,4.55,0,0,1-.23,1.48,3.71,3.71,0,0,1-.63,1.16,3.51,3.51,0,0,1-.92.8,3.33,3.33,0,0,1-1.15.43l1.75,6.12h-1.26l-1.65-6h-1.69l-1,6h-1.2l2.23-12.85h2.78a3.23,3.23,0,0,1,2.18.7A2.69,2.69,0,0,1-37.3,242.12Zm-1.18.15a1.84,1.84,0,0,0-.58-1.49,2.21,2.21,0,0,0-1.44-.47h-1.56l-.83,4.84h1.7A2.94,2.94,0,0,0-40.1,245a2.41,2.41,0,0,0,.85-.59,2.65,2.65,0,0,0,.57-.91A3.5,3.5,0,0,0-38.48,242.27Z" transform="translate(523.94 -145.85)"/></svg>